<?xml version="1.0" encoding="UTF-8" standalone="no"?>
<!-- Created with Inkscape (http://www.inkscape.org/) -->

<svg
   xmlns:dc="http://purl.org/dc/elements/1.1/"
   xmlns:cc="http://creativecommons.org/ns#"
   xmlns:rdf="http://www.w3.org/1999/02/22-rdf-syntax-ns#"
   xmlns:svg="http://www.w3.org/2000/svg"
   xmlns="http://www.w3.org/2000/svg"
   xmlns:sodipodi="http://sodipodi.sourceforge.net/DTD/sodipodi-0.dtd"
   xmlns:inkscape="http://www.inkscape.org/namespaces/inkscape"
   width="1280"
   height="640"
   id="svg2"
   version="1.1"
   inkscape:version="0.48.2 r9819"
   sodipodi:docname="colored-maui-style.svg">
  <defs
     id="defs4" />
  <sodipodi:namedview
     id="base"
     pagecolor="#ffffff"
     bordercolor="#666666"
     borderopacity="1.0"
     inkscape:pageopacity="0.0"
     inkscape:pageshadow="2"
     inkscape:zoom="1.5004828"
     inkscape:cx="621.07789"
     inkscape:cy="305.44655"
     inkscape:document-units="px"
     inkscape:current-layer="layer1"
     showgrid="false"
     inkscape:window-width="2560"
     inkscape:window-height="1377"
     inkscape:window-x="-8"
     inkscape:window-y="-8"
     inkscape:window-maximized="1"
     fit-margin-top="20"
     fit-margin-bottom="20"
     fit-margin-right="20"
     fit-margin-left="20" />
  <metadata
     id="metadata7">
    <rdf:RDF>
      <cc:Work
         rdf:about="">
        <dc:format>image/svg+xml</dc:format>
        <dc:type
           rdf:resource="http://purl.org/dc/dcmitype/StillImage" />
        <dc:title></dc:title>
      </cc:Work>
    </rdf:RDF>
  </metadata>
  <g
     inkscape:label="Layer 1"
     inkscape:groupmode="layer"
     id="layer1"
     transform="translate(-127.15234,-137.87733)">
    <rect
       style="fill:#6442d8;fill-opacity:1;stroke:none"
       id="rect3751"
       width="1284.2155"
       height="642.89142"
       x="126.04426"
       y="136.76485" />
    <path
       inkscape:connector-curvature="0"
       style="fill:#ffffff;fill-opacity:1;stroke:none"
       d="m 829.20168,231.56735 c -9.1673,-4.78182 -29.39683,-10.23651 -23.73859,2.52538 28.9446,46.19072 12.3478,56.2057 15.65737,49.75001 -26.51651,7.57615 -73.65056,67.01063 -121.84966,66.64768 54.92705,48.21237 91.51351,19.22446 91.51351,19.22446 19.98208,45.4477 -2.28345,59.70412 -34.12434,62.85485 -31.84089,3.15074 -73.95162,-5.05675 -92.5551,-4.52771 -18.60347,0.52904 -43.0274,2.57826 -62.38578,12.67336 0,0 -33.55814,-4.14771 -54.6025,-25.55281 -16.5926,-16.87703 26.22698,66.2057 26.22698,66.2057 0.81037,51.19029 18.21973,85.31719 18.21973,85.31719 6.49273,12.93005 -1.15818,34.47678 -4.54569,45.45686 l 0.50508,76.77159 38.89087,-1.01015 -1.51523,-45.96194 c 0,0 0.64741,-29.41178 14.89974,-50.00255 -1.69462,28.19346 8.2127,50.56967 3.283,86.36804 0,0 38.5776,-0.15035 38.3858,-1.01015 -9.11763,-40.87288 2.8948,-88.56855 2.8948,-88.56855 55.549,5.5019 79.68517,-5.37564 79.68517,-5.37564 7.32361,48.99241 5.80515,32.18582 8.83884,104.04572 0.064,1.51704 36.74429,0.12626 36.74429,0.12626 -3.64489,-76.5775 -2.14657,-100.32077 -2.14657,-100.32077 0,0 14.09419,43.8172 22.47589,86.05237 0.40181,2.02472 40.27385,1.23557 39.39595,-1.51523 -30.89978,-96.82078 -23.9028,-136.26875 -23.9028,-136.26875 8.01817,-9.48213 37.92148,-52.98167 39.05508,-97.6798 24.71838,6.3496 80.78285,16.20649 82.39058,-14.45781 13.92542,-5.75697 27.35841,-14.69721 25.44321,-29.63812 -2.47763,-19.3286 -27.02139,-29.18107 -43.47399,-55.24204 34.50517,4.41849 48.5045,0.74493 38.34836,-2.20903 -14.35531,-4.17531 -41.81087,-19.46048 -41.81087,-19.46048 0.14983,-11.26142 -15.34563,-22.08569 -15.34563,-22.08569 6.65477,-26.10029 -23.69424,-48.96984 -39.19466,-58.94121 -9.1673,-4.78182 -29.39683,-10.23651 -23.73859,2.52538 28.9446,46.19072 17.6511,39.03311 21.08533,41.56422 -14.73573,-4.02734 -14.98466,-3.23194 -14.98466,-3.23194 -7.26687,-19.53139 -28.5245,-35.07733 -44.02492,-45.0487 z"
       id="path4026-7"
       sodipodi:nodetypes="cccccsscsccccccccscccccsscccscsccccccc" />
    <path
       style="fill:#3a2186;fill-opacity:1;stroke:none"
       d="m 660.45498,548.60025 c 0,0 -3.67267,20.06507 -9.47018,28.78934 69.74741,25.55956 110.99051,6.18719 110.99051,6.18719 0,0 -6.31371,-31.00442 -10.85914,-39.14341 -37.62778,16.71878 -90.66119,4.16688 -90.66119,4.16688 z"
       id="path3762"
       inkscape:connector-curvature="0"
       sodipodi:nodetypes="ccccc" />
    <path
       style="fill:#3a2186;fill-opacity:1;stroke:none"
       d="m 811.78846,519.5775 c 0,0 -3.9252,33.44959 -4.16688,49.24493 66.9695,-39.59528 76.39279,-129.17325 76.39279,-129.17325 0,0 -6.31371,-3.22523 -13.63706,-5.05077 -19.1925,83.13631 -58.58885,84.97909 -58.58885,84.97909 z"
       id="path3762-9"
       inkscape:connector-curvature="0"
       sodipodi:nodetypes="ccccc" />
    <path
       style="fill:#3a2186;fill-opacity:1;stroke:none"
       d="m 701.55556,352.18872 c 0,0 22.33876,20.06507 57.95749,27.27411 19.41976,-3.89521 33.96868,-12.52156 48.36107,-28.41054 -45.96155,20.25432 -106.31856,1.13643 -106.31856,1.13643 z"
       id="path3762-9-4"
       inkscape:connector-curvature="0"
       sodipodi:nodetypes="cccc" />
    <path
       inkscape:connector-curvature="0"
       style="fill:#6442d8;fill-opacity:1;stroke:none"
       d="m 898.14125,349.1231 c 0,8.2289 -8.81909,14.89975 -19.69798,14.89975 -10.87889,0 -19.69797,-6.67085 -19.69797,-14.89975 0,-8.22891 8.81908,-14.89975 19.69797,-14.89975 10.87889,0 19.69798,6.67084 19.69798,14.89975 z"
       id="path3009" />
    <path
       inkscape:connector-curvature="0"
       style="fill:#ffffff;fill-opacity:1;stroke:none"
       d="m 885.56758,350.88521 c 0,2.37104 -1.80904,4.29315 -4.04061,4.29315 -2.23157,0 -4.04061,-1.92211 -4.04061,-4.29315 0,-2.37104 1.80904,-4.29314 4.04061,-4.29314 2.23157,0 4.04061,1.9221 4.04061,4.29314 z"
       id="path3011" />
    <path
       id="path3943-0"
       style="fill:none;stroke:#291b56;stroke-width:5;stroke-linecap:round;stroke-linejoin:round;stroke-miterlimit:4;stroke-opacity:1;stroke-dasharray:none"
       d="m 929.1997,295.30455 c 6.95856,-26.253 -23.39045,-49.12255 -38.89087,-59.09392 -9.1673,-4.78182 -29.39683,-10.23651 -23.73859,2.52538 28.9446,46.19072 17.6511,39.03311 21.46575,41.41626 m -83.12859,-45.6073 c 28.9446,46.19072 8.55973,56.2057 22.22336,68.1853 14.57227,7.52597 35.69894,11.30781 45.45686,-8.5863 6.95856,-26.253 -28.44121,-52.15301 -43.94163,-62.12438 -9.1673,-4.78182 -29.39683,-10.23651 -23.73859,2.52538 z m 118.18785,166.67517 c 0,0 27.76929,26.94393 42.93149,21.71828 14.24109,-4.90819 27.67408,-13.84843 25.75888,-28.78934 -2.47763,-19.3286 -27.02139,-29.18107 -43.94163,-55.55839 -8.54142,-13.3154 4.56369,-23.52207 -15.15229,-40.40611 -15.57001,-13.33359 -58.58885,-20.20305 -58.58885,-20.20305 m -0.19288,2.48978 c -5.96402,-1.24667 9.43982,2.78605 16.41498,10.35407 m 71.02982,106.97767 c -5.96402,-1.24667 17.01597,1.77589 15.40483,17.42513 m 7.07108,-26.51651 c -5.96402,-1.24667 -10.25817,7.8368 -7.57616,19.95051 m -46.21446,-12.16871 c -5.96402,-1.24667 -12.27847,-1.25457 -13.88961,14.39467 m -30.93593,-59.92309 c 0,2.37104 -1.80904,4.29315 -4.04061,4.29315 -2.23157,0 -4.04061,-1.92211 -4.04061,-4.29315 0,-2.37104 1.80904,-4.29314 4.04061,-4.29314 2.23157,0 4.04061,1.9221 4.04061,4.29314 z m 12.62691,-1.51522 c 0,8.2289 -8.81909,14.89975 -19.69798,14.89975 -10.87889,0 -19.69797,-6.67085 -19.69797,-14.89975 0,-8.22891 8.81908,-14.89975 19.69797,-14.89975 10.87889,0 19.69798,6.67084 19.69798,14.89975 z m -199.75766,1.72297 c 76.7716,64.64975 110.61171,-3.03046 110.61171,-3.03046 m 10.85914,-63.08974 c -26.26397,7.07107 -73.39802,66.50555 -121.72339,66.16499 127.27407,26.1413 127.7843,-27.77919 127.7843,-27.77919 m 119.6282,-5.93329 c 0,0 27.06095,15.01759 41.41626,19.1929 10.15614,2.95396 -3.84319,6.62752 -37.88073,2.52538 m 17.87882,85.41259 c -3.43863,39.66451 -109.75819,14.90787 -131.0673,-10.35407 m 47.72971,24.44015 c -6.97416,81.08076 -71.87747,135.11602 -77.02413,129.55206 m 63.51335,-131.4461 c -12.6269,72.73098 -56.82108,83.59012 -56.82108,83.59012 m -163.13964,56.56855 c 57.07362,27.27411 112.63201,7.07106 112.63201,7.07106 M 662.22335,548.70242 c 67.68023,12.6269 89.14597,-5.05077 89.14597,-5.05077 M 599.5939,441.62624 c 0,0 -32.74626,-4.35379 -53.79062,-25.75889 -16.5926,-16.87703 25.25381,65.65992 25.25381,65.65992 m 67.68022,111.11678 c -1.94717,28.19346 7.96016,50.56967 3.03046,86.36804 0,0 38.5776,-0.15035 38.3858,-1.01015 -9.11763,-40.87288 3.03046,-88.13581 3.03046,-88.13581 m 122.98607,-2.27285 c 0,0 14.09419,44.13288 22.47589,86.36805 0.40181,2.02472 40.27385,1.23557 39.39595,-1.51523 C 837.14216,575.62532 844.30335,536.58058 844.30335,536.58058 M 744.29826,525.46891 c 21.71828,49.49748 24.24043,90.77466 27.27412,162.63456 0.064,1.51704 36.87056,1.01015 36.87056,1.01015 -9.95834,-145.26788 7.07107,-183.84777 7.07107,-183.84777 M 789.75512,370.91557 c 39.39594,89.90357 -89.06212,57.02568 -126.26907,58.08377 -37.20695,1.05808 -91.6348,7.43925 -91.4188,58.08377 0.216,50.64452 18.18274,80.30713 18.18274,80.30713 6.49273,12.93005 -1.15818,34.47678 -4.54569,45.45686 l 0.50508,76.77159 38.89087,-1.01015 -1.51523,-45.96194 c 0,0 1.65756,-39.00823 20.70813,-58.08377 17.00333,-17.02561 17.17259,-47.47717 17.17259,-47.47717"
       inkscape:connector-curvature="0" />
  </g>
</svg>
