<?xml version="1.0" encoding="UTF-8" standalone="no"?>
<!-- Created with Inkscape (http://www.inkscape.org/) -->

<svg
   xmlns:dc="http://purl.org/dc/elements/1.1/"
   xmlns:cc="http://creativecommons.org/ns#"
   xmlns:rdf="http://www.w3.org/1999/02/22-rdf-syntax-ns#"
   xmlns:svg="http://www.w3.org/2000/svg"
   xmlns="http://www.w3.org/2000/svg"
   xmlns:sodipodi="http://sodipodi.sourceforge.net/DTD/sodipodi-0.dtd"
   xmlns:inkscape="http://www.inkscape.org/namespaces/inkscape"
   sodipodi:docname="solid.svg"
   inkscape:version="0.48.2 r9819"
   version="1.1"
   id="svg2"
   height="1052.3622047"
   width="744.09448819">
  <defs
     id="defs4" />
  <sodipodi:namedview
     id="base"
     pagecolor="#ffffff"
     bordercolor="#666666"
     borderopacity="1.0"
     inkscape:pageopacity="0.0"
     inkscape:pageshadow="2"
     inkscape:zoom="1.4"
     inkscape:cx="570.88662"
     inkscape:cy="650.87066"
     inkscape:document-units="px"
     inkscape:current-layer="layer1"
     showgrid="false"
     inkscape:window-width="2560"
     inkscape:window-height="1377"
     inkscape:window-x="-8"
     inkscape:window-y="-8"
     inkscape:window-maximized="1" />
  <metadata
     id="metadata7">
    <rdf:RDF>
      <cc:Work
         rdf:about="">
        <dc:format>image/svg+xml</dc:format>
        <dc:type
           rdf:resource="http://purl.org/dc/dcmitype/StillImage" />
      </cc:Work>
    </rdf:RDF>
  </metadata>
  <g
     inkscape:label="Layer 1"
     inkscape:groupmode="layer"
     id="layer1">
    <path
       inkscape:connector-curvature="0"
       style="fill:#000000;stroke:#000000;stroke-width:5;stroke-linecap:round;stroke-linejoin:round;stroke-miterlimit:4;stroke-opacity:1;stroke-dasharray:none;fill-opacity:1"
       d="m 445.98732,223.64752 c -9.1673,-4.78182 -29.39683,-10.23651 -23.73859,2.52538 28.9446,46.19072 12.3478,56.2057 15.65737,49.75001 -26.51651,7.57615 -73.65056,67.01063 -121.84966,66.64768 54.92705,48.21237 91.51351,19.22446 91.51351,19.22446 19.98208,45.4477 -2.28345,59.70412 -34.12434,62.85485 -31.84089,3.15074 -73.95162,-5.05675 -92.5551,-4.52771 -18.60347,0.52904 -43.0274,2.57826 -62.38578,12.67336 0,0 -33.55814,-4.14771 -54.6025,-25.55281 -16.5926,-16.87703 26.22698,66.2057 26.22698,66.2057 0.81037,51.19029 18.21973,85.31719 18.21973,85.31719 6.49273,12.93005 -1.15818,34.47678 -4.54569,45.45686 l 0.50508,76.77159 38.89087,-1.01015 -1.51523,-45.96194 c 0,0 0.64741,-29.41178 14.89974,-50.00255 -1.69462,28.19346 8.2127,50.56967 3.283,86.36804 0,0 38.5776,-0.15035 38.3858,-1.01015 -9.11763,-40.87288 2.8948,-88.56855 2.8948,-88.56855 55.549,5.5019 79.68517,-5.37564 79.68517,-5.37564 7.32361,48.99241 5.80515,32.18582 8.83884,104.04572 0.064,1.51704 36.74429,0.12626 36.74429,0.12626 -3.64489,-76.5775 -2.14657,-100.32077 -2.14657,-100.32077 0,0 14.09419,43.8172 22.47589,86.05237 0.40181,2.02472 40.27385,1.23557 39.39595,-1.51523 -30.89978,-96.82078 -23.9028,-136.26875 -23.9028,-136.26875 8.01817,-9.48213 37.92148,-52.98167 39.05508,-97.6798 24.71838,6.3496 80.78285,16.20649 82.39058,-14.45781 13.92542,-5.75697 27.35841,-14.69721 25.44321,-29.63812 -2.47763,-19.3286 -27.02139,-29.18107 -43.47399,-55.24204 34.50517,4.41849 48.5045,0.74493 38.34836,-2.20903 -14.35531,-4.17531 -41.81087,-19.46048 -41.81087,-19.46048 0.14983,-11.26142 -15.34563,-22.08569 -15.34563,-22.08569 6.65477,-26.10029 -23.69424,-48.96984 -39.19466,-58.94121 -9.1673,-4.78182 -29.39683,-10.23651 -23.73859,2.52538 28.9446,46.19072 17.6511,39.03311 21.08533,41.56422 -14.73573,-4.02734 -14.98466,-3.23194 -14.98466,-3.23194 -7.26687,-19.53139 -28.5245,-35.07733 -44.02492,-45.0487 z"
       id="path4026-7"
       sodipodi:nodetypes="cccccsscsccccccccscccccsscccscsccccccc" />
  </g>
</svg>
